<svg xmlns="http://www.w3.org/2000/svg" xmlns:xlink="http://www.w3.org/1999/xlink" width="300" height="300" viewBox="-984312.9111880005 5070193.681612001 92149.14207599999 67367.85977600142" preserveAspectRatio="xMinYMin meet"><g transform="matrix(1,0,0,-1,0,10207755.223000003)"><path fill-rule="evenodd" fill="#66cc99" stroke="#555555" stroke-width="614.3276138399999" opacity="0.6" d="M -895962.5262000003,5133087.503200002 L -895581.8581999987,5132622.557499998 L -895576.7003000005,5131652.656499996 L -895660.8339999989,5131299.154799999 L -895862.8016999998,5131320.689999996 L -895979.1349,5131022.591499999 L -896931.7617000005,5130785.673399999 L -897092.565200001,5130018.813699997 L -897401.0740999989,5129524.9099999955 L -897330.0817000008,5129163.359999999 L -897705.7204000019,5128996.810500004 L -897299.0623000003,5127722.204400002 L -897557.8418999985,5127481.524099997 L -897638.7318999991,5127147.049999998 L -897436.7052000016,5126684.953900003 L -897433.2014000006,5125190.189699999 L -897698.3187000006,5124815.391599997 L -898420.6468999983,5124472.8284 L -898459.8564000018,5124001.979400002 L -899171.6325999983,5123461.997000002 L -899307.1204999984,5122565.717399999 L -899084.8601000012,5122215.508900002 L -899387.7384000011,5122022.115999996 L -899312.2025000006,5121464.4279000005 L -899550.0727000014,5121417.401000001 L -899709.0412000008,5120955.413800001 L -899672.9602999984,5119812.748999998 L -899966.0439999998,5119484.264999999 L -900378.5493000001,5118031.535400003 L -900729.2419999986,5117705.452799997 L -900864.6499000005,5117749.496799997 L -901122.2039999999,5117154.045000002 L -902228.0742000006,5116648.350000001 L -902705.1873000005,5116619.3658 L -902691.6728999987,5116435.371799997 L -903751.0265000014,5114993.256999999 L -903854.7175000012,5114541.8874 L -905059.7096999997,5114578.639499999 L -905415.7518000006,5113936.872199996 L -905870.3559000008,5113608.063799999 L -906504.9692,5113797.3659000015 L -907576.2888000011,5113434.662699999 L -909471.8493999987,5113300.758199995 L -909776.5355000013,5112438.213200002 L -910361.2492999993,5112466.170999998 L -910709.2206000014,5112205.511100002 L -911027.5874000005,5111306.414499998 L -911040.2837000003,5110649.471199995 L -911674.7259999998,5109742.717699996 L -912599.5544999987,5109270.4573 L -915090.7965999991,5108806.807599999 L -916249.9105999992,5109124.882299998 L -917164.4455999992,5108619.695699996 L -918381.724800002,5109269.665799998 L -918724.7346,5109128.632899999 L -918982.9483000004,5109306.413799999 L -919514.5199999996,5109295.9438000005 L -919709.0658,5109575.162899999 L -920108.8011999987,5109445.364200004 L -920312.4869000019,5109168.203000001 L -920798.4624000007,5109114.5952999955 L -921041.5227000004,5108849.381300003 L -922003.7641000003,5109068.748099997 L -922287.2039999999,5108783.339599998 L -923108.1849000007,5108484.608900004 L -923582.3128999994,5108704.083199999 L -924553.7842999995,5108276.6867 L -924938.9970000013,5107640.129399999 L -925304.7029,5107966.068300001 L -925550.0472999997,5107987.141400001 L -926162.1451000012,5106339.181900001 L -925940.7540999986,5105767.129100002 L -926116.9100000001,5105182.948799997 L -926772.2648000009,5104563.893499999 L -927958.5883000009,5104258.291799999 L -928378.8863000012,5103775.653399995 L -928139.2347999997,5103405.819099998 L -927833.1647999994,5101920.613499998 L -927916.7184999995,5100632.090400002 L -928695.6416999996,5100218.688199996 L -928884.3346000017,5099812.055799997 L -928764.5304999985,5099149.373699999 L -928062.2901999989,5098704.587499998 L -927025.1389999986,5098298.0577 L -926261.4512999989,5098401.1096 L -926012.1700000019,5098280.650399997 L -925281.434700001,5097426.841399998 L -925154.0658,5096490.439499997 L -923574.9618999995,5095669.670500003 L -923492.4246999994,5094421.615199997 L -924565.6660000011,5092800.363799996 L -925890.0450000018,5092641.244599997 L -926272.7296999992,5091784.525399996 L -927043.2223000005,5091919.008400002 L -926981.2626999989,5091531.423199995 L -927550.0623000003,5092433.9224999985 L -929322.6655000001,5092108.813100003 L -929678.3181999994,5091744.3802 L -930410.9937000015,5091994.878600001 L -931078.6746000013,5091987.564199999 L -932668.5139000006,5091199.6318000015 L -933236.2683000008,5090105.332299999 L -934189.3949999996,5089167.182999997 L -934172.8748999983,5088196.919799998 L -934395.5788000003,5087871.9564 L -933886.8156999984,5086918.340400002 L -934219.8289999998,5086173.858499995 L -934444.3726000004,5084928.414499997 L -934771.9783999996,5084638.9153999975 L -935017.6424999982,5084694.121799999 L -935582.6031999998,5084420.370099997 L -936197.9673999994,5083109.2321000025 L -939016.5445999987,5080984.301399998 L -940594.3891000001,5082347.931199997 L -941445.7157000005,5081528.226400003 L -942033.5954000019,5081287.950999998 L -943214.5439000018,5082492.436499999 L -944128.429299999,5082668.609700002 L -945178.3222000003,5083226.633900002 L -948128.6405999996,5083045.799299999 L -948236.8498999999,5083175.013400004 L -948477.3561000004,5082817.264100001 L -949169.8497,5082808.5062 L -949485.0698999987,5082147.469300002 L -949723.7919999994,5082091.558799996 L -950223.6383999997,5082236.1928 L -950424.8542000017,5082876.549099996 L -950587.2611000017,5082956.113999999 L -950964.3640000001,5082355.469400003 L -951481.8643999994,5082122.863799996 L -952247.305300001,5082127.590299999 L -952501.5333000009,5081674.059199995 L -953336.8695,5082028.583800003 L -953171.8530000001,5081575.343000002 L -952654.0793999993,5081344.942699998 L -951904.6920999999,5080453.479500003 L -951835.5907000003,5080074.674599996 L -951587.5285999997,5080050.976099998 L -951019.3966999985,5079372.070600002 L -951534.2206999997,5078267.883799998 L -951783.5692000017,5078078.9974 L -951913.2738000005,5078161.881999999 L -952076.1796000003,5077883.104500002 L -951977.1642999985,5077452.936999999 L -952926.0555000008,5075965.1775999945 L -954708.9792999998,5074990.2452 L -955012.9341999999,5075100.325499996 L -955612.8724000007,5075991.723399998 L -957023.1402000003,5076378.644500001 L -957254.1295999995,5076378.0622000005 L -957505.1605999991,5076081.6796 L -958162.1294000002,5076154.194799996 L -959876.565299999,5073729.2848000005 L -960614.2916,5073606.612800001 L -961205.5837999991,5074291.015799999 L -961833.2274000011,5074140.1083 L -962928.8572999983,5074443.746799997 L -963029.2241999991,5075346.489200003 L -963737.5725999996,5076909.754500002 L -964296.6081000009,5077682.520199999 L -965127.1972999984,5078243.689800003 L -966608.2498999984,5078820.480899995 L -968563.9681999981,5077779.931599997 L -969433.5529999994,5078980.718799999 L -969520.0474000014,5079468.439900002 L -970683.5297,5079728.0276999995 L -971065.9565000013,5079490.710199996 L -971765.2659000009,5079480.439299999 L -971867.4058,5079711.672799998 L -972258.4602999985,5079777.323299995 L -972875.0421000012,5080512.8736 L -972954.7674,5080973.843699998 L -973573.2725000009,5081541.236900002 L -973571.6499000005,5081713.008500003 L -974333.6590999998,5081342.265600003 L -976137.6000999993,5081729.531300001 L -976987.5088,5082208.579499996 L -977071.121100001,5083559.477899998 L -977929.2674999983,5084821.571099997 L -978154.0806999989,5085956.688399999 L -978638.4287,5086579.464699998 L -978164.487399999,5088407.957999996 L -978233.1253999993,5088644.489600001 L -978453.7747000009,5088661.129199996 L -978334.1598999985,5088911.285300001 L -978609.6338,5089888.042400002 L -978742.7292000019,5090079.758699999 L -978920.9125000015,5090002.843699998 L -978755.8346999997,5090147.2915999945 L -978768.9398000017,5090872.610799997 L -978586.7085000016,5091303.349899998 L -978661.6803999993,5091908.720700003 L -978887.4677999988,5092259.8582999995 L -978724.3145999983,5092549.9631 L -978951.3060999998,5092529.335900001 L -978946.572900001,5094100.112099996 L -979227.3656000011,5095227.6845 L -979575.7098999992,5095840.978600002 L -979505.9123000017,5097025.037199997 L -980217.1372000016,5098758.015100001 L -980515.4393000007,5101990.281499995 L -980899.9800000004,5102970.589599996 L -980541.5342000015,5103277.979199997 L -980343.191300001,5102615.2048 L -979695.4550999998,5102198.328500002 L -979157.6193999983,5102625.079700001 L -978456.7925999984,5102888.828299997 L -978264.3355999999,5103154.627499998 L -977675.8258999996,5103021.620800003 L -977622.1176999995,5103299.482100002 L -976950.7983000017,5103628.029200002 L -976751.6116000005,5103276.0348000005 L -976411.7800000013,5103654.810000001 L -976205.034600001,5103244.1157 L -975598.7932000011,5103238.290299997 L -975429.9816999995,5103489.174900001 L -974804.046500001,5103390.071900003 L -974794.0771000012,5104453.821099996 L -973848.7840000018,5104961.179099998 L -973150.1198000014,5104093.911899997 L -972823.1612000018,5104188.349799999 L -972649.0850999987,5104426.925399996 L -972091.6882000006,5104477.4604 L -971269.7853999995,5106232.8599999985 L -970019.0513000004,5106436.567299998 L -969446.2151999994,5106022.828799999 L -969178.651999999,5106024.074799998 L -968700.6345000007,5106909.366300002 L -968126.0124999994,5107307.477899998 L -967536.6706000007,5107125.597599998 L -966939.026299998,5107258.144199996 L -966103.5361000001,5107107.4423 L -964475.7699999996,5107549.631700001 L -964149.8458999991,5107039.0168 L -963498.9294999987,5106677.195100002 L -963460.8581000008,5106212.325800001 L -963174.9118999989,5106250.097499996 L -963026.1057999991,5105910.824899999 L -962749.9873000012,5106163.2768 L -962505.6622000001,5106130.510300001 L -962455.389800001,5107069.130400001 L -962675.8698999994,5108224.046499997 L -962201.3673,5108772.970700003 L -962165.7448999994,5109346.980899997 L -960366.7672000006,5108810.033699998 L -960426.8557999991,5108639.204499996 L -960680.7615999989,5108590.2233000025 L -960582.9853000009,5107872.682899995 L -960705.3178999983,5107790.119 L -960359.8803999983,5107645.944399997 L -959177.8962000011,5107793.548699997 L -957907.0441000015,5106694.2883 L -957807.8768999988,5106357.957099996 L -957213.2879000009,5106609.663299999 L -956775.8429000004,5107193.550999999 L -955772.864599999,5107772.311599999 L -954821.8081,5107645.4076 L -954050.3751000018,5106009.6532000005 L -953862.3462000004,5105227.890900001 L -953206.8625000006,5104772.770300001 L -953268.2391999997,5105141.679300003 L -952050.8960000017,5105278.915299997 L -951795.942499999,5105519.372599998 L -950751.6316000001,5105910.283200001 L -950970.9494000004,5107098.652099995 L -950382.2564999982,5108224.184 L -950261.1420000009,5108797.946300001 L -950436.1022999993,5109493.512100004 L -950885.0313000008,5109893.758500002 L -950722.6915999986,5109998.284900001 L -950771.2093000002,5110196.598300001 L -951487.7670999989,5110672.369999997 L -950986.9679999986,5111887.998599998 L -950552.8687999992,5111931.921400001 L -950208.1612999998,5112180.053000003 L -950160.2012999989,5112775.453900001 L -949916.5573999994,5113094.376000001 L -949573.8022000007,5113236.356700004 L -949208.4030000007,5112996.058200004 L -948638.5599999988,5113101.3939 L -947745.3553000018,5119322.301799998 L -948358.7725999989,5119592.1347 L -948286.3165999986,5120009.648900002 L -946958.9835000001,5121072.4407 L -946392.2624999993,5121900.881999999 L -945489.3533000015,5122342.9288 L -945168.8421999997,5122339.5770000005 L -944800.5447000003,5122086.418399997 L -944843.8189999983,5120452.872299999 L -944638.0998000018,5120195.882299996 L -943932.9686999993,5120518.983999998 L -941930.3662,5120955.716399997 L -941114.1777999996,5121472.197400003 L -941103.4415999986,5122211.450599999 L -940966.5414999984,5122360.805799997 L -940214.9211999996,5122695.780500001 L -939876.4688999988,5123222.316100002 L -939226.4875000007,5123274.780199997 L -938576.6981999986,5123838.5995000005 L -938491.5865999982,5124142.4207 L -937833.8786999993,5124375.762199997 L -937796.4763999991,5124705.132899999 L -937363.4959000014,5124586.776100003 L -936663.1359999997,5124945.895599996 L -936145.8748999983,5125019.8083000025 L -934950.2434,5124766.178999997 L -934482.0808000006,5125262.217 L -933796.4789000005,5125128.5163 L -933200.3211000003,5125277.669500001 L -932292.4261000006,5126646.144199996 L -931876.8630000018,5126679.395199999 L -931136.1601999998,5125522.176299996 L -930671.1997999994,5125527.973399996 L -930376.0850999986,5125253.313800001 L -929860.373300001,5125267.7645 L -929589.3385999987,5125059.451499999 L -928119.6501000002,5125792.004900002 L -927752.0595999993,5125625.527900002 L -927289.3654999993,5125839.413199998 L -926398.6055999994,5125699.936899997 L -925725.5401000009,5125388.018799996 L -924709.5047999991,5125271.582199997 L -924293.3491999991,5125622.111199997 L -923875.3343000001,5126345.822099999 L -923755.3995999991,5127528.781800002 L -923332.6369999984,5128214.893799997 L -923008.9409999995,5128371.522799998 L -921542.9070000014,5127326.822400003 L -921390.4065000005,5126882.946099996 L -921165.808600001,5126717.120999999 L -920796.5830000007,5126768.611599997 L -919599.9613000005,5127841.149300001 L -917877.3304999991,5128515.0955 L -917604.8295999989,5129192.878799997 L -917337.6039000003,5129405.255099995 L -916347.2954000012,5129188.889499996 L -916078.0113999993,5129275.659500002 L -915725.1680999993,5129918.555399999 L -915234.178199999,5130255.483599996 L -914381.6031999998,5131404.676100001 L -913441.1334999987,5131687.886299997 L -913237.7694000006,5132130.657899997 L -912853.4356999993,5132296.011600001 L -912391.6763000004,5132926.836800001 L -912061.9959999993,5132889.511500001 L -911981.2582999988,5132650.380999996 L -911694.6774000003,5132543.442599996 L -910982.3850999996,5132976.120999998 L -910227.0903000012,5132274.261600002 L -909186.4057999997,5132199.719999998 L -908925.1020000018,5133772.499799995 L -907736.2214000002,5133752.969599999 L -905127.9635000005,5132390.534900003 L -904403.4855000004,5132355.252200001 L -904027.2138999999,5132766.162899999 L -903541.278000001,5132957.791500002 L -903360.4477999993,5132815.263599999 L -902194.0857000015,5132827.723399995 L -901884.7245999984,5132532.903399996 L -901660.2879000008,5132636.656800002 L -901623.0844999999,5132494.071799999 L -901010.7250000015,5132267.300399995 L -900940.4635000007,5132728.785599998 L -900621.3929000013,5132917.499099999 L -900272.7342000008,5132988.730800003 L -900168.0023999996,5132745.896099998 L -899898.7016000004,5132657.946199998 L -899358.8621999995,5132936.519000001 L -899337.9582999981,5133100.504799998 L -898731.8575999998,5133034.079699999 L -897847.6634000018,5133671.862499999 L -896974.2941999995,5133414.639899997 L -896699.5742999986,5133574.804599999 L -896503.4532999994,5134148.610200002 L -896260.217799999,5133975.184299997 L -895962.5262000003,5133087.503200002 z" /></g></svg>